<svg xmlns="http://www.w3.org/2000/svg" width="412" height="452" viewBox="0 0 412 452">
  <g fill="none" fill-rule="evenodd" transform="translate(1 1)">
    <path fill="#DEDEF9" d="M404,374 C405.324405,373.891695 406.528472,373.872054 408,374 C409.615926,375.207365 410.54828,377.561112 410,380 L389,426 C388.379348,428.621289 386.670078,430.309629 385,431 L341,450 C339.500609,450.132065 338.300276,450.101366 337,450 C335.272828,448.642665 334.437567,446.252878 335,444 L357,399 C358.33816,396.840213 359.843126,395.350374 362,394 L404,374 Z M397,352 C398.033724,352.482958 399.165248,353.587946 400,355 C400.646276,357.602404 399.32343,360.487463 397,361 L313,392 C311.157918,393.203897 308.707948,393.20786 306,392 L222,361 C220.857331,360.931045 219.74672,359.787351 219,358 C218.381564,355.720201 219.789142,352.875759 222,352 L307,324 C308.806828,322.821962 311.059343,322.825374 313,324 L397,352 Z" transform="matrix(-1 0 0 1 629 0)"/>
    <path fill="#DEDEF9" d="M185,374 C186.324405,373.891695 187.528472,373.872054 189,374 C190.615926,375.207365 191.54828,377.561112 191,380 L170,426 C169.379348,428.621289 167.670078,430.309629 166,431 L122,450 C120.500609,450.132065 119.300276,450.101366 118,450 C116.272828,448.642665 115.437567,446.252878 116,444 L138,399 C139.33816,396.840213 140.843126,395.350374 143,394 L185,374 Z M178,352 C179.033724,352.482958 180.165248,353.587946 181,355 C181.646276,357.602404 180.32343,360.487463 178,361 L94,392 C92.1579179,393.203897 89.7079484,393.20786 87,392 L3,361 C1.8573309,360.931045 0.746719508,359.787351 1.42108547e-14,358 C-0.61843633,355.720201 0.789142367,352.875759 3,352 L88,324 C89.8068276,322.821962 92.0593427,322.825374 94,324 L178,352 Z"/>
    <path fill="#6639B7" d="M190,332 C191.153552,333.130775 191.174283,334.723562 191,336 C189.370433,338.607854 186.392422,339.697234 184,339 L75,288 C72.7653699,287.019245 71.0460468,285.307381 70,283 L18,173 C17.8331381,171.76317 17.8430345,170.183297 18,169 C19.7039302,166.338625 22.699017,165.297025 25,167 L132,218 C133.616729,218.891812 135.239601,220.497173 136,222 L190,332 Z M220,332 L274,222 C274.760399,220.497173 276.383271,218.891812 278,218 L385,167 C387.300983,165.297025 390.29607,166.338625 392,169 C392.156965,170.183297 392.166862,171.76317 392,173 L340,283 C338.953953,285.307381 337.23463,287.019245 335,288 L226,339 C223.607578,339.697234 220.629567,338.607854 219,336 C218.825717,334.723562 218.846448,333.130775 220,332 Z M210,3 L263,157 C264.182056,159.356687 264.18413,161.644835 263,164 L210,319 C208.857326,321.233614 205.985524,322.623603 203,322 C201.876693,321.229059 200.720229,320.086856 200,319 L147,165 C145.817944,162.643313 145.81587,160.355165 147,158 L200,3 C201.142674,0.766385803 204.014476,-0.623603113 207,0 C208.123307,0.77094062 209.279771,1.9131441 210,3 Z"/>
  </g>
</svg>
