<svg xmlns="http://www.w3.org/2000/svg" width="412" height="452" viewBox="0 0 412 452">
  <g fill="#FFF">
    <path d="M404.988509,375 C406.312914,374.891695 407.516981,374.872054 408.988509,375 C410.604435,376.207365 411.536789,378.561112 410.988509,381 L389.988509,427 C389.367857,429.621289 387.658587,431.309629 385.988509,432 L341.988509,451 C340.489118,451.132065 339.288785,451.101366 337.988509,451 C336.261337,449.642665 335.426076,447.252878 335.988509,445 L357.988509,400 C359.326669,397.840213 360.831635,396.350374 362.988509,395 L404.988509,375 Z M397.988509,353 C399.022233,353.482958 400.153757,354.587946 400.988509,356 C401.634785,358.602404 400.311939,361.487463 397.988509,362 L313.988509,393 C312.146427,394.203897 309.696457,394.20786 306.988509,393 L222.988509,362 C221.84584,361.931045 220.735229,360.787351 219.988509,359 C219.370073,356.720201 220.777651,353.875759 222.988509,353 L307.988509,325 C309.795337,323.821962 312.047852,323.825374 313.988509,325 L397.988509,353 Z" transform="matrix(-1 0 0 1 630.989 0)"/>
    <path d="M186 375C187.324405 374.891695 188.528472 374.872054 190 375 191.615926 376.207365 192.54828 378.561112 192 381L171 427C170.379348 429.621289 168.670078 431.309629 167 432L123 451C121.500609 451.132065 120.300276 451.101366 119 451 117.272828 449.642665 116.437567 447.252878 117 445L139 400C140.33816 397.840213 141.843126 396.350374 144 395L186 375zM179 353C180.033724 353.482958 181.165248 354.587946 182 356 182.646276 358.602404 181.32343 361.487463 179 362L95 393C93.1579179 394.203897 90.7079484 394.20786 88 393L4 362C2.8573309 361.931045 1.74671951 360.787351 1 359 .38156367 356.720201 1.78914237 353.875759 4 353L89 325C90.8068276 323.821962 93.0593427 323.825374 95 325L179 353zM191 333C192.153552 334.130775 192.174283 335.723562 192 337 190.370433 339.607854 187.392422 340.697234 185 340L76 289C73.7653699 288.019245 72.0460468 286.307381 71 284L19 174C18.8331381 172.76317 18.8430345 171.183297 19 170 20.7039302 167.338625 23.699017 166.297025 26 168L133 219C134.616729 219.891812 136.239601 221.497173 137 223L191 333zM221 333L275 223C275.760399 221.497173 277.383271 219.891812 279 219L386 168C388.300983 166.297025 391.29607 167.338625 393 170 393.156965 171.183297 393.166862 172.76317 393 174L341 284C339.953953 286.307381 338.23463 288.019245 336 289L227 340C224.607578 340.697234 221.629567 339.607854 220 337 219.825717 335.723562 219.846448 334.130775 221 333zM211 4L264 158C265.182056 160.356687 265.18413 162.644835 264 165L211 320C209.857326 322.233614 206.985524 323.623603 204 323 202.876693 322.229059 201.720229 321.086856 201 320L148 166C146.817944 163.643313 146.81587 161.355165 148 159L201 4C202.142674 1.7663858 205.014476.376396887 208 1 209.123307 1.77094062 210.279771 2.9131441 211 4z"/>
  </g>
</svg>
